<svg xmlns="http://www.w3.org/2000/svg" width="3200" height="1800" viewBox="0 0 3200 1800" role="img" aria-labelledby="title desc">
  <title id="title">面向层级航路意图的船舶轨迹预测框架</title>
  <desc id="desc">五阶段船舶轨迹预测推理框架，突出双分支特征编码、层级航路意图、条件轨迹生成和候选选择。</desc>
  <defs>
    <marker id="arrow-dark" markerWidth="11" markerHeight="9" refX="10" refY="4.5" orient="auto" markerUnits="strokeWidth"><path d="M0,0 L11,4.5 L0,9 Z" fill="#4B5563"/></marker>
    <marker id="arrow-blue" markerWidth="11" markerHeight="9" refX="10" refY="4.5" orient="auto" markerUnits="strokeWidth"><path d="M0,0 L11,4.5 L0,9 Z" fill="#377EB8"/></marker>
    <marker id="arrow-teal" markerWidth="11" markerHeight="9" refX="10" refY="4.5" orient="auto" markerUnits="strokeWidth"><path d="M0,0 L11,4.5 L0,9 Z" fill="#009E73"/></marker>
    <marker id="arrow-green" markerWidth="11" markerHeight="9" refX="10" refY="4.5" orient="auto" markerUnits="strokeWidth"><path d="M0,0 L11,4.5 L0,9 Z" fill="#2E7D32"/></marker>
    <marker id="arrow-orange" markerWidth="11" markerHeight="9" refX="10" refY="4.5" orient="auto" markerUnits="strokeWidth"><path d="M0,0 L11,4.5 L0,9 Z" fill="#B66F00"/></marker>
    <marker id="arrow-red" markerWidth="11" markerHeight="9" refX="10" refY="4.5" orient="auto" markerUnits="strokeWidth"><path d="M0,0 L11,4.5 L0,9 Z" fill="#8B1E2D"/></marker>
    <style>
      text { font-family: "Microsoft YaHei", "PingFang SC", "Noto Sans CJK SC", Arial, sans-serif; fill: #1F2937; letter-spacing: 0; }
      .figure-title { font-size: 40px; font-weight: 700; }
      .stage-title { font-size: 28px; font-weight: 700; }
      .body { font-size: 21px; font-weight: 400; }
      .small { font-size: 18px; font-weight: 400; }
      .tag { font-size: 20px; font-weight: 600; }
      .group-title { font-size: 22px; font-weight: 700; }
      .tensor { font-size: 18px; font-weight: 500; fill: #5F6B78; }
    </style>
  </defs>
  <rect x="0" y="0" width="3200" height="1800" fill="#FFFFFF"/>
  <text x="1600" y="60" text-anchor="middle" class="figure-title">面向层级航路意图的船舶轨迹预测框架</text>
  <g aria-label="module legend">
    <rect x="58" y="34" width="24" height="18" rx="3" fill="#EAF3FA" stroke="#377EB8" stroke-width="1.8"/>
    <text x="94" y="51" class="small">运动编码</text>
    <rect x="220" y="34" width="24" height="18" rx="3" fill="#E7F6F1" stroke="#009E73" stroke-width="1.8"/>
    <text x="256" y="51" class="small">语义信息</text>
    <rect x="382" y="34" width="24" height="18" rx="3" fill="#EDF7ED" stroke="#2E7D32" stroke-width="1.8"/>
    <text x="418" y="51" class="small">航路意图</text>
    <rect x="544" y="34" width="24" height="18" rx="3" fill="#FFF4DE" stroke="#B66F00" stroke-width="1.8"/>
    <text x="580" y="51" class="small">轨迹生成</text>
    <rect x="706" y="34" width="24" height="18" rx="3" fill="#F3F4F6" stroke="#6B7280" stroke-width="1.8"/>
    <text x="742" y="51" class="small">选择输出</text>
  </g><g>
    <rect x="40" y="100" width="420" height="1560" rx="10" fill="#EAF3FA" fill-opacity="0.12" stroke="#377EB8" stroke-width="2.2"/>
    <path d="M50,100 H450 Q460,100 460,110 V160 H40 V110 Q40,100 50,100 Z" fill="#EAF3FA"/>
    <line x1="40" y1="160" x2="460" y2="160" stroke="#377EB8" stroke-width="2"/>
    <text x="250" y="141" text-anchor="middle" class="stage-title">第一阶段  多源输入</text>
  </g><g>
    <rect x="480" y="100" width="560" height="1560" rx="10" fill="#EAF3FA" fill-opacity="0.12" stroke="#377EB8" stroke-width="2.2"/>
    <path d="M490,100 H1030 Q1040,100 1040,110 V160 H480 V110 Q480,100 490,100 Z" fill="#EAF3FA"/>
    <line x1="480" y1="160" x2="1040" y2="160" stroke="#377EB8" stroke-width="2"/>
    <text x="760" y="141" text-anchor="middle" class="stage-title">第二阶段  运动特征编码</text>
  </g><g>
    <rect x="1060" y="100" width="720" height="1560" rx="10" fill="#EDF7ED" fill-opacity="0.12" stroke="#2E7D32" stroke-width="2.2"/>
    <path d="M1070,100 H1770 Q1780,100 1780,110 V160 H1060 V110 Q1060,100 1070,100 Z" fill="#EDF7ED"/>
    <line x1="1060" y1="160" x2="1780" y2="160" stroke="#2E7D32" stroke-width="2"/>
    <text x="1420" y="141" text-anchor="middle" class="stage-title">第三阶段  航路意图推断</text>
  </g><g>
    <rect x="1800" y="100" width="680" height="1560" rx="10" fill="#FFF4DE" fill-opacity="0.12" stroke="#B66F00" stroke-width="2.2"/>
    <path d="M1810,100 H2470 Q2480,100 2480,110 V160 H1800 V110 Q1800,100 1810,100 Z" fill="#FFF4DE"/>
    <line x1="1800" y1="160" x2="2480" y2="160" stroke="#B66F00" stroke-width="2"/>
    <text x="2140" y="141" text-anchor="middle" class="stage-title">第四阶段  条件轨迹生成</text>
  </g><g>
    <rect x="2500" y="100" width="660" height="1560" rx="10" fill="#F3F4F6" fill-opacity="0.12" stroke="#6B7280" stroke-width="2.2"/>
    <path d="M2510,100 H3150 Q3160,100 3160,110 V160 H2500 V110 Q2500,100 2510,100 Z" fill="#F3F4F6"/>
    <line x1="2500" y1="160" x2="3160" y2="160" stroke="#6B7280" stroke-width="2"/>
    <text x="2830" y="141" text-anchor="middle" class="stage-title">第五阶段  候选选择与输出</text>
  </g><rect x="70" y="380" width="360" height="180" rx="8" fill="#EAF3FA" stroke="#377EB8" stroke-width="2.4"/><text x="250" y="422" text-anchor="middle" font-size="26" font-weight="700"><tspan x="250" dy="0">历史AIS轨迹</tspan></text><text x="250" y="473" text-anchor="middle" class="body"><tspan x="250" dy="0">3小时 · 13个观测点</tspan><tspan x="250" dy="32">经纬度、SOG、COG及变化量</tspan></text><rect x="70" y="1010" width="360" height="170" rx="8" fill="#E7F6F1" stroke="#009E73" stroke-width="2.4"/><text x="250" y="1052" text-anchor="middle" font-size="26" font-weight="700"><tspan x="250" dy="0">航次语义信息</tspan></text><text x="250" y="1101" text-anchor="middle" class="body"><tspan x="250" dy="0">船型 · 吃水 · Destination</tspan><tspan x="250" dy="32">航行状态</tspan></text><rect x="510" y="270" width="500" height="430" rx="8" fill="#EAF3FA" stroke="#377EB8" stroke-width="2.6"/>
    <text x="760" y="319" text-anchor="middle" font-size="28" font-weight="700">全局/局部双分支运动编码器</text>
    <line x1="545" y1="345" x2="975" y2="345" stroke="#377EB8" stroke-width="1.5" opacity="0.65"/>
    <rect x="550" y="375" width="420" height="105" rx="6" fill="#FFFFFF" fill-opacity="0.82" stroke="#377EB8" stroke-width="1.8"/>
    <text x="760" y="416" text-anchor="middle" font-size="24" font-weight="700">Transformer全局轨迹编码</text>
    <text x="760" y="453" text-anchor="middle" class="small">输入映射 + 位置编码</text>
    <rect x="550" y="535" width="420" height="105" rx="6" fill="#FFFFFF" fill-opacity="0.82" stroke="#377EB8" stroke-width="1.8"/>
    <text x="760" y="576" text-anchor="middle" font-size="24" font-weight="700">TCN局部行为编码</text>
    <text x="760" y="613" text-anchor="middle" class="small">短期变化 · 转向趋势</text><polyline points="510,488 530,488 530,428 550,428" fill="none" stroke="#377EB8" stroke-width="2.4" stroke-linecap="square" stroke-linejoin="round" marker-end="url(#arrow-blue)"/><polyline points="530,488 530,588 550,588" fill="none" stroke="#377EB8" stroke-width="2.4" stroke-linecap="square" stroke-linejoin="round" marker-end="url(#arrow-blue)"/><rect x="510" y="1010" width="500" height="220" rx="8" fill="#E7F6F1" stroke="#009E73" stroke-width="2.4"/><text x="760" y="1052" text-anchor="middle" font-size="26" font-weight="700"><tspan x="760" dy="0">冻结Qwen3-1.7B语义教师</tspan></text><text x="760" y="1104" text-anchor="middle" class="body" fill="#009E73"><tspan x="760" dy="0">离线预编码 → 语义投影MLP</tspan><tspan x="760" dy="33">门控融合TCN意图摘要</tspan><tspan x="760" dy="33">不直接生成轨迹</tspan></text><rect x="1180" y="650" width="480" height="250" rx="8" fill="#EDF7ED" stroke="#2E7D32" stroke-width="2.4"/><text x="1420" y="704" text-anchor="middle" font-size="29" font-weight="700"><tspan x="1420" dy="0">层级航路意图模块</tspan></text><text x="1420" y="768" text-anchor="middle" class="body"><tspan x="1420" dy="0">主航路 / 子航路联合推断</tspan><tspan x="1420" dy="38">航路先验与置信度路由</tspan><tspan x="1420" dy="38">输出航路条件嵌入</tspan></text><text x="1420" y="972" text-anchor="middle" class="tensor" fill="#2E7D32"><tspan x="1420" dy="0">层级结构、门控与Top-K细节见意图子图</tspan></text><rect x="1840" y="270" width="600" height="175" rx="8" fill="#FFF4DE" stroke="#B66F00" stroke-width="2.4"/><text x="2140" y="312" text-anchor="middle" font-size="26" font-weight="700"><tspan x="2140" dy="0">特征融合块 Fusion Block</tspan></text><text x="2140" y="361" text-anchor="middle" class="body"><tspan x="2140" dy="0">Transformer全局特征</tspan><tspan x="2140" dy="32">+ 航路修正的TCN局部意图</tspan></text><rect x="1840" y="680" width="600" height="220" rx="8" fill="#FFF4DE" stroke="#B66F00" stroke-width="2.4"/><text x="2140" y="727" text-anchor="middle" font-size="26" font-weight="700"><tspan x="2140" dy="0">共享轨迹解码器</tspan><tspan x="2140" dy="33">+ 子航路残差专家库</tspan></text><text x="2140" y="829" text-anchor="middle" class="body"><tspan x="2140" dy="0">公共运动规律 + 分支转向修正</tspan><tspan x="2140" dy="32">依据P(subroute)组合专家残差</tspan></text><rect x="1840" y="1100" width="600" height="205" rx="8" fill="#FFF4DE" stroke="#B66F00" stroke-width="2.4"/><text x="2140" y="1142" text-anchor="middle" font-size="26" font-weight="700"><tspan x="2140" dy="0">多航路条件候选轨迹</tspan></text><text x="2140" y="1195" text-anchor="middle" class="body"><tspan x="2140" dy="0">神经网络预测残差 + 线性运动基线</tspan><tspan x="2140" dy="34">恢复未来绝对轨迹候选集</tspan></text><rect x="2550" y="430" width="560" height="245" rx="8" fill="#FFF4DE" stroke="#B66F00" stroke-width="2.4"/><text x="2830" y="472" text-anchor="middle" font-size="26" font-weight="700"><tspan x="2830" dy="0">学习型候选选择器</tspan></text><text x="2830" y="528" text-anchor="middle" class="body"><tspan x="2830" dy="0">航路概率 · 连续性 · 平滑性</tspan><tspan x="2830" dy="34">原型距离 · 候选嵌入</tspan><tspan x="2830" dy="34">候选排序得分</tspan></text><rect x="2640" y="845" width="380" height="125" rx="8" fill="#F3F4F6" stroke="#6B7280" stroke-width="2.4"/><text x="2830" y="887" text-anchor="middle" font-size="26" font-weight="700"><tspan x="2830" dy="0">验证集阈值校准</tspan></text><text x="2830" y="929" text-anchor="middle" class="small"><tspan x="2830" dy="0">置信度与切换阈值</tspan></text><rect x="2550" y="1140" width="560" height="225" rx="8" fill="#FFF4DE" stroke="#B66F00" stroke-width="3"/><text x="2830" y="1196" text-anchor="middle" font-size="31" font-weight="700"><tspan x="2830" dy="0">唯一Top-1轨迹</tspan></text><text x="2830" y="1280" text-anchor="middle" class="body"><tspan x="2830" dy="0">未来3小时 · 12个预测点</tspan><tspan x="2830" dy="38">经纬度、SOG、COG</tspan></text><polyline points="430,470 470,470 470,488 510,488" fill="none" stroke="#377EB8" stroke-width="2.8" stroke-linecap="square" stroke-linejoin="round" marker-end="url(#arrow-blue)"/><polyline points="430,1095 470,1095 470,1120 510,1120" fill="none" stroke="#009E73" stroke-width="2.8" stroke-linecap="square" stroke-linejoin="round" marker-end="url(#arrow-teal)"/><polyline points="970,588 1045,588 1045,710 1180,710" fill="none" stroke="#377EB8" stroke-width="3" stroke-linecap="square" stroke-linejoin="round" marker-end="url(#arrow-blue)"/><polyline points="1010,1120 1080,1120 1080,840 1180,840" fill="none" stroke="#009E73" stroke-width="3" stroke-linecap="square" stroke-linejoin="round" marker-end="url(#arrow-teal)"/><polyline points="970,428 1035,428 1035,190 2010,190 2010,270" fill="none" stroke="#377EB8" stroke-width="3" stroke-linecap="square" stroke-linejoin="round" marker-end="url(#arrow-blue)"/><text x="1480" y="184" text-anchor="middle" class="tensor" fill="#377EB8"><tspan x="1480" dy="0">全局轨迹特征</tspan></text><polyline points="1660,775 1785,775 1785,390 1840,390" fill="none" stroke="#2E7D32" stroke-width="3" stroke-linecap="square" stroke-linejoin="round" marker-end="url(#arrow-green)"/><text x="1770" y="755" text-anchor="end" class="tensor" fill="#2E7D32"><tspan x="1770" dy="0">航路条件嵌入</tspan></text><polyline points="2140,445 2140,680" fill="none" stroke="#B66F00" stroke-width="3" stroke-linecap="square" stroke-linejoin="round" marker-end="url(#arrow-orange)"/><polyline points="2140,900 2140,1100" fill="none" stroke="#B66F00" stroke-width="3" stroke-linecap="square" stroke-linejoin="round" marker-end="url(#arrow-orange)"/><polyline points="2440,1202 2485,1202 2485,550 2550,550" fill="none" stroke="#B66F00" stroke-width="3" stroke-linecap="square" stroke-linejoin="round" marker-end="url(#arrow-orange)"/><text x="2470" y="1180" text-anchor="end" class="tensor" fill="#B66F00"><tspan x="2470" dy="0">候选轨迹集</tspan></text><polyline points="2830,675 2830,845" fill="none" stroke="#B66F00" stroke-width="3" stroke-linecap="square" stroke-linejoin="round" marker-end="url(#arrow-orange)"/><polyline points="2830,970 2830,1140" fill="none" stroke="#B66F00" stroke-width="3" stroke-linecap="square" stroke-linejoin="round" marker-end="url(#arrow-orange)"/></svg>
