<svg xmlns="http://www.w3.org/2000/svg" width="2280" height="1110" viewBox="0 0 2280 1110" role="img" aria-labelledby="title desc">
  <title id="title">多候选轨迹生成与学习式筛选模块</title>
  <desc id="desc">基础预测与六条子航路条件预测组成候选集合，候选选择器使用历史、航路概率和几何合理性选出唯一轨迹。</desc>
  <defs>
    <marker id="arrow" markerWidth="10" markerHeight="8" refX="9" refY="4" orient="auto" markerUnits="strokeWidth">
      <path d="M0,0 L10,4 L0,8 z" fill="#4B5563"/>
    </marker>
    <marker id="arrowTrain" markerWidth="10" markerHeight="8" refX="9" refY="4" orient="auto" markerUnits="strokeWidth">
      <path d="M0,0 L10,4 L0,8 z" fill="#7556A8"/>
    </marker>
    <style>
      text { font-family: "Microsoft YaHei", "PingFang SC", "Noto Sans CJK SC", Arial, sans-serif; fill: #20262E; letter-spacing: 0; }
      .figure-title { font-size: 34px; font-weight: 500; }
      .group-title { font-size: 23px; font-weight: 500; }
      .box-title { font-size: 21px; font-weight: 500; }
      .body { font-size: 17px; font-weight: 400; }
      .small { font-size: 15px; font-weight: 400; fill: #5C6672; }
      .formula { font-size: 19px; font-weight: 500; }
      .step { font-size: 17px; font-weight: 500; }
    </style>
  </defs>
  <rect x="0" y="0" width="2280" height="1110" fill="#FFFFFF"/>
  <text x="1140" y="52" text-anchor="middle" class="figure-title">多候选轨迹生成与学习式筛选模块</text>
<rect x="740" y="72" width="22" height="15" rx="2" fill="#EAF2FB" stroke="#4A79A8" stroke-width="1.5"/><text x="771" y="85" text-anchor="start" class="small"><tspan x="771" dy="0">原始主干</tspan></text>
<rect x="885" y="72" width="22" height="15" rx="2" fill="#ECF5EF" stroke="#3D7D55" stroke-width="1.5"/><text x="916" y="85" text-anchor="start" class="small"><tspan x="916" dy="0">本文新增</tspan></text>
<rect x="1030" y="72" width="22" height="15" rx="2" fill="#FFF7E6" stroke="#9B6A20" stroke-width="1.5"/><text x="1061" y="85" text-anchor="start" class="small"><tspan x="1061" dy="0">语义/几何先验</tspan></text>
<rect x="1200" y="72" width="22" height="15" rx="2" fill="#F4F0FA" stroke="#7556A8" stroke-width="1.5" stroke-dasharray="4 3"/><text x="1231" y="85" text-anchor="start" class="small"><tspan x="1231" dy="0">仅训练阶段</tspan></text>
<rect x="55" y="235" width="280" height="175" rx="5" fill="#EAF2FB" stroke="#4A79A8" stroke-width="2"/><text x="195" y="270" text-anchor="middle" class="box-title"><tspan x="195" dy="0">历史编码 H</tspan></text>
<text x="195" y="303" text-anchor="middle" class="body"><tspan x="195" dy="0">TCN 局部时序编码</tspan><tspan x="195" dy="24">+ Transformer 全局编码</tspan><tspan x="195" dy="24">千问语义已经门控融合</tspan><tspan x="195" dy="24">主/子航路分类得分</tspan></text>
<rect x="55" y="520" width="280" height="175" rx="5" fill="#ECF5EF" stroke="#3D7D55" stroke-width="2"/><text x="195" y="555" text-anchor="middle" class="box-title"><tspan x="195" dy="0">候选标签集合</tspan></text>
<text x="195" y="588" text-anchor="middle" class="body"><tspan x="195" dy="0">基础轨迹</tspan><tspan x="195" dy="26">OA_S00 / S01 / S02</tspan><tspan x="195" dy="26">OB1_S00 / OB2_S00 / OC_S00</tspan></text>
<rect x="405" y="155" width="470" height="650" rx="6" fill="#FFFFFF" stroke="#3D7D55" stroke-width="2.2"/>
  <rect x="421" y="138" width="203" height="34" rx="4" fill="#FFFFFF" stroke="#3D7D55" stroke-width="1.8"/>
  <text x="522.5" y="162" text-anchor="middle" class="group-title">共享条件解码器</text>
<rect x="450" y="220" width="380" height="125" rx="5" fill="#ECF5EF" stroke="#3D7D55" stroke-width="2"/><text x="640" y="255" text-anchor="middle" class="box-title"><tspan x="640" dy="0">条件注入</tspan></text>
<text x="640" y="288" text-anchor="middle" class="body"><tspan x="640" dy="0">H + 第 k 个主航路嵌入 + 第 k 个子航路嵌入</tspan></text>
<rect x="450" y="420" width="380" height="125" rx="5" fill="#EAF2FB" stroke="#4A79A8" stroke-width="2"/><text x="640" y="455" text-anchor="middle" class="box-title"><tspan x="640" dy="0">共享轨迹解码</tspan></text>
<text x="640" y="488" text-anchor="middle" class="body"><tspan x="640" dy="0">Transformer + 注意力融合</tspan><tspan x="640" dy="26">线性运动基线 + 共享残差</tspan></text>
<rect x="450" y="620" width="380" height="125" rx="5" fill="#ECF5EF" stroke="#3D7D55" stroke-width="2"/><text x="640" y="655" text-anchor="middle" class="box-title"><tspan x="640" dy="0">分支残差修正</tspan></text>
<text x="640" y="688" text-anchor="middle" class="body"><tspan x="640" dy="0">第 k 个专家残差，缩放系数 = 0.25</tspan></text>
<polyline points="640,345 640,420" fill="none" stroke="#4B5563" stroke-width="2.3" stroke-linejoin="round" marker-end="url(#arrow)"/><polyline points="640,545 640,620" fill="none" stroke="#4B5563" stroke-width="2.3" stroke-linejoin="round" marker-end="url(#arrow)"/><rect x="945" y="155" width="500" height="650" rx="6" fill="#FFFFFF" stroke="#3D7D55" stroke-width="2.2"/>
  <rect x="961" y="138" width="180" height="34" rx="4" fill="#FFFFFF" stroke="#3D7D55" stroke-width="1.8"/>
  <text x="1051" y="162" text-anchor="middle" class="group-title">候选轨迹集合</text>
<rect x="990" y="205" width="410" height="55" rx="5" fill="#EAF2FB" stroke="#4A79A8" stroke-width="2"/><text x="1195" y="234" text-anchor="middle" class="box-title"><tspan x="1195" dy="0">Ŷ0  基础轨迹</tspan></text>
<rect x="990" y="283" width="410" height="55" rx="5" fill="#ECF5EF" stroke="#3D7D55" stroke-width="2"/><text x="1195" y="312" text-anchor="middle" class="box-title"><tspan x="1195" dy="0">Ŷ1  OA-S00</tspan></text>
<rect x="990" y="361" width="410" height="55" rx="5" fill="#ECF5EF" stroke="#3D7D55" stroke-width="2"/><text x="1195" y="390" text-anchor="middle" class="box-title"><tspan x="1195" dy="0">Ŷ2  OA-S01</tspan></text>
<rect x="990" y="439" width="410" height="55" rx="5" fill="#ECF5EF" stroke="#3D7D55" stroke-width="2"/><text x="1195" y="468" text-anchor="middle" class="box-title"><tspan x="1195" dy="0">Ŷ3  OA-S02</tspan></text>
<rect x="990" y="517" width="410" height="55" rx="5" fill="#ECF5EF" stroke="#3D7D55" stroke-width="2"/><text x="1195" y="546" text-anchor="middle" class="box-title"><tspan x="1195" dy="0">Ŷ4  OB1-S00</tspan></text>
<rect x="990" y="595" width="410" height="55" rx="5" fill="#ECF5EF" stroke="#3D7D55" stroke-width="2"/><text x="1195" y="624" text-anchor="middle" class="box-title"><tspan x="1195" dy="0">Ŷ5  OB2-S00</tspan></text>
<rect x="990" y="673" width="410" height="55" rx="5" fill="#ECF5EF" stroke="#3D7D55" stroke-width="2"/><text x="1195" y="702" text-anchor="middle" class="box-title"><tspan x="1195" dy="0">Ŷ6  OC-S00</tspan></text>
<rect x="1515" y="155" width="430" height="650" rx="6" fill="#FFFFFF" stroke="#3D7D55" stroke-width="2.2"/>
  <rect x="1531" y="138" width="150" height="34" rx="4" fill="#FFFFFF" stroke="#3D7D55" stroke-width="1.8"/>
  <text x="1606" y="162" text-anchor="middle" class="group-title">候选评分</text>
<rect x="1555" y="220" width="350" height="230" rx="5" fill="#FFF7E6" stroke="#9B6A20" stroke-width="2"/><text x="1730" y="255" text-anchor="middle" class="box-title"><tspan x="1730" dy="0">六维几何与概率特征</tspan></text>
<text x="1730" y="288" text-anchor="middle" class="body"><tspan x="1730" dy="0">第 k 个主航路的对数概率</tspan><tspan x="1730" dy="31">第 k 个子航路的对数概率</tspan><tspan x="1730" dy="31">连续性 / 平滑性</tspan><tspan x="1730" dy="31">原型距离 / 基础候选标记</tspan></text>
<rect x="1555" y="535" width="350" height="180" rx="5" fill="#ECF5EF" stroke="#3D7D55" stroke-width="2"/><text x="1730" y="570" text-anchor="middle" class="box-title"><tspan x="1730" dy="0">候选轨迹选择器</tspan></text>
<text x="1730" y="603" text-anchor="middle" class="body"><tspan x="1730" dy="0">历史 H、航路嵌入、六维评分特征</tspan><tspan x="1730" dy="26">层归一化 → MLP → 第 k 个候选得分</tspan><tspan x="1730" dy="26">+ 航路概率先验</tspan></text>
<polyline points="1730,450 1730,535" fill="none" stroke="#4B5563" stroke-width="2.3" stroke-linejoin="round" marker-end="url(#arrow)"/><rect x="2015" y="315" width="220" height="280" rx="5" fill="#F7F8FA" stroke="#65707C" stroke-width="2"/><text x="2125" y="350" text-anchor="middle" class="box-title"><tspan x="2125" dy="0">唯一预测 Ŷ</tspan></text>
<text x="2125" y="383" text-anchor="middle" class="body"><tspan x="2125" dy="0">候选概率归一化</tspan><tspan x="2125" dy="31">置信度阈值</tspan><tspan x="2125" dy="31">前两候选得分间隔</tspan><tspan x="2125" dy="31">验证集校准</tspan><tspan x="2125" dy="31">控制是否切换分支</tspan></text>
<polyline points="335,322 405,322" fill="none" stroke="#4B5563" stroke-width="2.3" stroke-linejoin="round" marker-end="url(#arrow)"/><polyline points="335,607 370,607 370,280 450,280" fill="none" stroke="#4B5563" stroke-width="2.3" stroke-linejoin="round" marker-end="url(#arrow)"/><polyline points="875,480 945,480" fill="none" stroke="#4B5563" stroke-width="2.3" stroke-linejoin="round" marker-end="url(#arrow)"/><polyline points="1445,480 1515,480" fill="none" stroke="#4B5563" stroke-width="2.3" stroke-linejoin="round" marker-end="url(#arrow)"/><polyline points="1945,625 1980,625 1980,455 2015,455" fill="none" stroke="#4B5563" stroke-width="2.3" stroke-linejoin="round" marker-end="url(#arrow)"/><rect x="405" y="920" width="1540" height="125" rx="6" fill="#FFFFFF" stroke="#7556A8" stroke-width="2.2" stroke-dasharray="10 7"/>
  <rect x="421" y="903" width="320" height="34" rx="4" fill="#FFFFFF" stroke="#7556A8" stroke-width="1.8" stroke-dasharray="10 7"/>
  <text x="581" y="927" text-anchor="middle" class="group-title">仅训练阶段：候选优胜者监督</text>
<rect x="455" y="950" width="290" height="65" rx="5" fill="#F4F0FA" stroke="#7556A8" stroke-width="2" stroke-dasharray="8 6"/><text x="600" y="979" text-anchor="middle" class="box-title"><tspan x="600" dy="0">真实未来 Y</tspan></text>
<rect x="850" y="950" width="420" height="65" rx="5" fill="#F4F0FA" stroke="#7556A8" stroke-width="2" stroke-dasharray="8 6"/><text x="1060" y="979" text-anchor="middle" class="box-title"><tspan x="1060" dy="0">候选代价 = 平均误差 ADE + 0.2·终点误差 FDE</tspan></text>
<rect x="1375" y="950" width="520" height="65" rx="5" fill="#F4F0FA" stroke="#7556A8" stroke-width="2" stroke-dasharray="8 6"/><text x="1635" y="979" text-anchor="middle" class="box-title"><tspan x="1635" dy="0">软排序 + 代价回归 + 优胜候选损失</tspan></text>
<polyline points="745,982 850,982" fill="none" stroke="#7556A8" stroke-width="2.3" stroke-linejoin="round" stroke-dasharray="8 6" marker-end="url(#arrowTrain)"/><polyline points="1270,982 1375,982" fill="none" stroke="#7556A8" stroke-width="2.3" stroke-linejoin="round" stroke-dasharray="8 6" marker-end="url(#arrowTrain)"/><polyline points="1635,950 1635,805" fill="none" stroke="#7556A8" stroke-width="2.3" stroke-linejoin="round" stroke-dasharray="8 6" marker-end="url(#arrowTrain)"/></svg>
